<?xml version="1.0" standalone="no"?>
<!DOCTYPE svg PUBLIC "-//W3C//DTD SVG 20010904//EN"
 "http://www.w3.org/TR/2001/REC-SVG-20010904/DTD/svg10.dtd">
<svg version="1.0" xmlns="http://www.w3.org/2000/svg"
 width="1024.000000pt" height="1024.000000pt" viewBox="0 0 1024.000000 1024.000000"
 preserveAspectRatio="xMidYMid meet">
<metadata>
Created by potrace 1.14, written by Peter Selinger 2001-2017
</metadata>
<g transform="translate(0.000000,1024.000000) scale(0.100000,-0.100000)"
fill="#000000" stroke="none">
<path d="M0 5120 l0 -5120 5120 0 5120 0 0 5120 0 5120 -5120 0 -5120 0 0
-5120z m4720 3726 c58 -9 117 -19 133 -22 l27 -6 0 -1706 c0 -1640 -1 -1709
-19 -1747 -52 -113 -181 -145 -269 -67 -17 15 -326 434 -688 932 -362 498
-815 1120 -1006 1383 -192 263 -351 484 -354 491 -3 8 42 53 113 113 448 375
880 574 1383 639 136 17 534 11 680 -10z m2272 -2138 c410 -326 720 -800 871
-1333 42 -148 63 -254 51 -264 -5 -5 -56 -16 -114 -25 -58 -8 -352 -56 -655
-105 -302 -49 -763 -124 -1024 -166 l-474 -77 -46 18 c-60 23 -143 106 -158
159 -7 22 -15 63 -18 90 l-7 50 164 220 c90 121 295 396 454 610 160 215 390
524 512 688 l222 298 60 -41 c33 -22 106 -77 162 -122z m-4450 -1409 c211 -77
424 -156 473 -174 105 -39 916 -338 1088 -401 131 -48 140 -55 192 -158 28
-54 35 -80 35 -125 0 -58 -29 -133 -67 -177 -12 -14 -337 -132 -1053 -382
-569 -199 -1041 -363 -1049 -364 -33 -6 -141 412 -172 667 -16 128 -16 460 0
590 20 160 67 380 112 520 41 130 47 145 54 145 2 0 176 -63 387 -141z m4279
-1683 c605 -178 1103 -326 1106 -329 3 -3 -12 -57 -33 -119 -197 -595 -566
-1089 -1023 -1372 -94 -58 -191 -109 -196 -104 -2 2 -263 442 -579 978 -437
740 -577 984 -582 1017 -8 55 10 128 43 172 25 33 111 81 146 81 9 0 512 -146
1118 -324z m-2060 44 c35 -18 69 -51 86 -84 12 -23 21 -222 49 -1123 19 -603
32 -1098 30 -1101 -13 -13 -438 -4 -556 12 -317 42 -592 144 -822 306 -100 70
-296 258 -368 353 -41 55 -43 60 -29 81 8 13 319 370 692 794 519 589 685 772
705 776 47 8 188 -1 213 -14z"/>
</g>
</svg>
